<?xml version="1.0" encoding="utf-8"?>
<!-- Generator: Adobe Illustrator 21.1.0, SVG Export Plug-In . SVG Version: 6.00 Build 0)  -->
<svg version="1.1" id="Layer_1" xmlns="http://www.w3.org/2000/svg" xmlns:xlink="http://www.w3.org/1999/xlink" x="0px" y="0px"
	 viewBox="0 0 268.6 327" style="enable-background:new 0 0 268.6 327;" xml:space="preserve">
<style type="text/css">
	.st0{fill:#DB2B27;}
	.st1{fill:#FFFFFF;}
</style>
<g>
	<rect class="st0" width="268.6" height="268.6"/>
	<path class="st1" d="M78.2,72.7c-1.2-0.4-3.1-0.5-4.5-0.5h-17v17.1h16.8c1.3,0,3.2-0.1,4.4-0.4c3.5-0.9,6-3.7,6-8.1
		C84,76.3,81.5,73.7,78.2,72.7 M82.3,127.5l-12.1-25.8H56.8v25.8H43.2V59.6h30.2c5,0,8.5,0.5,11.6,1.5c8.2,2.8,13.7,9.5,13.7,19.8
		c0,9.8-5.3,16.7-14.2,19.9l13.8,26.8H82.3z"/>
	<path class="st1" d="M200.8,73.3c-1.8-0.4-3.9-0.5-6.1-0.5h-6.4v41.5h6c2.5,0,4.7-0.1,6.7-0.7c9.3-2.4,13.5-10.3,13.5-20.4
		C214.5,82.9,210,75.4,200.8,73.3 M207.3,125.8c-3.6,1.2-8.9,1.7-15.7,1.7h-16.9V59.6h17c6.1,0,11.8,0.5,15.8,1.9
		c13.8,4.8,21.8,16.7,21.8,32.1C229.2,109,221.2,121.1,207.3,125.8"/>
	<rect x="111.7" y="59.6" class="st1" width="47.2" height="13.4"/>
	<rect x="111.7" y="86.8" class="st1" width="47.2" height="13.4"/>
	<rect x="111.7" y="114.1" class="st1" width="47.2" height="13.4"/>
	<path class="st1" d="M74.1,180.9H56.7v15.5h17.5c5.9,0,9.4-2.9,9.4-7.9C83.5,183.8,80,180.9,74.1,180.9 M73.3,154.3H56.7v14.5h17.1
		c5.3,0,7.7-3.7,7.7-7.4C81.4,157.1,78.9,154.3,73.3,154.3 M98.2,188.9c0,11-6,17.7-15.9,19.7c-2.5,0.5-5.4,0.7-9.6,0.7H43.2v-67.9
		h30.3c3.2,0,6.8,0.2,9.4,0.9c8.1,2.3,13,8.2,13,17c0,8-3.8,12.7-8.1,14.7C92.1,175.2,98.2,180.7,98.2,188.9"/>
	<rect x="111.7" y="141.4" class="st1" width="47.2" height="13.4"/>
	<rect x="111.7" y="168.7" class="st1" width="47.2" height="13.4"/>
	<rect x="111.7" y="195.9" class="st1" width="47.2" height="13.4"/>
	<polygon class="st1" points="222,154.8 222,141.4 174.8,141.4 174.8,154.8 174.8,154.8 174.8,168.7 174.8,168.7 174.8,182 
		174.8,182 174.8,195.9 174.8,195.9 174.8,209.3 222,209.3 222,195.9 188.3,195.9 188.3,182 222,182 222,168.7 188.3,168.7 
		188.3,154.8 	"/>
	<rect y="314.1" class="st0" width="268.6" height="12.9"/>
	<path class="st1" d="M14.6,291.8h4.7c1.5,0,2.6-0.3,3.3-0.9c0.7-0.6,1-1.4,1-2.4c0-0.8-0.2-1.4-0.6-1.9s-0.9-0.9-1.5-1.1
		c-0.4-0.1-1.1-0.2-2.2-0.2h-4.6V291.8z M12.2,301.3v-18.1H19c1.2,0,2.1,0.1,2.8,0.2c0.9,0.1,1.6,0.4,2.2,0.8c0.6,0.4,1.1,1,1.5,1.7
		c0.4,0.7,0.6,1.6,0.6,2.5c0,1.5-0.5,2.8-1.5,3.9c-1,1.1-2.7,1.6-5.3,1.6h-4.6v7.4H12.2z"/>
	<path class="st1" d="M30.5,293.9h6.1l-1.9-5c-0.6-1.5-1-2.8-1.3-3.8c-0.2,1.2-0.6,2.3-1,3.5L30.5,293.9z M25.3,301.3l7-18.1h2.6
		l7.4,18.1h-2.7l-2.1-5.5h-7.6l-2,5.5H25.3z"/>
	<path class="st1" d="M46.7,291.2h5.1c1.1,0,2-0.1,2.6-0.3c0.6-0.2,1.1-0.6,1.4-1.1c0.3-0.5,0.5-1,0.5-1.6c0-0.9-0.3-1.6-0.9-2.1
		c-0.6-0.5-1.6-0.8-2.9-0.8h-5.7V291.2z M44.3,301.3v-18.1h8c1.6,0,2.8,0.2,3.7,0.5c0.8,0.3,1.5,0.9,2,1.7c0.5,0.8,0.8,1.7,0.8,2.7
		c0,1.3-0.4,2.4-1.2,3.2c-0.8,0.9-2.1,1.4-3.9,1.7c0.6,0.3,1.1,0.6,1.4,0.9c0.7,0.6,1.4,1.4,2,2.4l3.1,4.9h-3l-2.4-3.8
		c-0.7-1.1-1.3-1.9-1.7-2.5c-0.5-0.6-0.9-1-1.2-1.2c-0.4-0.2-0.7-0.4-1.1-0.5c-0.3-0.1-0.7-0.1-1.3-0.1h-2.8v8H44.3z"/>
	<polygon class="st1" points="66.8,301.3 66.8,285.4 60.9,285.4 60.9,283.2 75.2,283.2 75.2,285.4 69.2,285.4 69.2,301.3 	"/>
	<path class="st1" d="M86.2,292.5c0,2.2,0.6,3.9,1.8,5.2c1.2,1.3,2.6,1.9,4.4,1.9c1.8,0,3.3-0.6,4.5-1.9c1.2-1.3,1.7-3.1,1.7-5.4
		c0-1.5-0.2-2.8-0.7-3.9c-0.5-1.1-1.2-2-2.2-2.6c-1-0.6-2-0.9-3.2-0.9c-1.7,0-3.2,0.6-4.4,1.7C86.8,287.9,86.2,289.8,86.2,292.5
		 M83.7,292.5c0-3,0.8-5.4,2.4-7.1c1.6-1.7,3.7-2.6,6.2-2.6c1.7,0,3.2,0.4,4.5,1.2c1.3,0.8,2.4,1.9,3.1,3.3c0.7,1.4,1.1,3,1.1,4.9
		c0,1.8-0.4,3.5-1.1,4.9c-0.7,1.5-1.8,2.5-3.1,3.3c-1.4,0.7-2.8,1.1-4.4,1.1c-1.7,0-3.2-0.4-4.6-1.2c-1.3-0.8-2.4-1.9-3.1-3.4
		C84.1,295.6,83.7,294.1,83.7,292.5"/>
	<polygon class="st1" points="104.4,301.3 104.4,283.2 116.6,283.2 116.6,285.4 106.8,285.4 106.8,291 115.3,291 115.3,293.1 
		106.8,293.1 106.8,301.3 	"/>
	<polygon class="st1" points="129.1,301.3 129.1,283.2 142.2,283.2 142.2,285.4 131.5,285.4 131.5,290.9 141.5,290.9 141.5,293 
		131.5,293 131.5,299.2 142.6,299.2 142.6,301.3 	"/>
	<path class="st1" d="M148.4,291.2h5.1c1.1,0,2-0.1,2.6-0.3c0.6-0.2,1.1-0.6,1.4-1.1c0.3-0.5,0.5-1,0.5-1.6c0-0.9-0.3-1.6-0.9-2.1
		c-0.6-0.5-1.6-0.8-2.9-0.8h-5.7V291.2z M146,301.3v-18.1h8c1.6,0,2.8,0.2,3.7,0.5c0.8,0.3,1.5,0.9,2,1.7c0.5,0.8,0.8,1.7,0.8,2.7
		c0,1.3-0.4,2.4-1.2,3.2c-0.8,0.9-2.1,1.4-3.9,1.7c0.6,0.3,1.1,0.6,1.4,0.9c0.7,0.6,1.4,1.4,2,2.4l3.1,4.9h-3l-2.4-3.8
		c-0.7-1.1-1.3-1.9-1.7-2.5c-0.5-0.6-0.9-1-1.2-1.2c-0.4-0.2-0.7-0.4-1.1-0.5c-0.3-0.1-0.7-0.1-1.3-0.1h-2.8v8H146z"/>
	<rect x="164.8" y="283.2" class="st1" width="2.4" height="18.1"/>
	<path class="st1" d="M184.5,295l2.4,0.6c-0.5,2-1.4,3.5-2.7,4.5c-1.3,1-2.9,1.6-4.8,1.6c-2,0-3.5-0.4-4.8-1.2
		c-1.2-0.8-2.2-1.9-2.8-3.5c-0.6-1.5-1-3.1-1-4.9c0-1.9,0.4-3.5,1.1-4.9c0.7-1.4,1.7-2.5,3.1-3.2c1.3-0.7,2.8-1.1,4.4-1.1
		c1.8,0,3.3,0.5,4.6,1.4c1.2,0.9,2.1,2.2,2.6,3.9l-2.4,0.6c-0.4-1.3-1-2.3-1.8-2.9c-0.8-0.6-1.8-0.9-3-0.9c-1.4,0-2.6,0.3-3.5,1
		c-0.9,0.7-1.6,1.6-2,2.7c-0.4,1.1-0.6,2.3-0.6,3.5c0,1.5,0.2,2.9,0.7,4c0.4,1.2,1.1,2,2.1,2.6c0.9,0.6,2,0.9,3.1,0.9
		c1.3,0,2.5-0.4,3.4-1.2C183.5,297.7,184.1,296.5,184.5,295"/>
	<path class="st1" d="M189.1,295.5l2.3-0.2c0.1,0.9,0.4,1.7,0.7,2.2c0.4,0.6,1,1.1,1.8,1.4c0.8,0.4,1.8,0.5,2.8,0.5
		c0.9,0,1.7-0.1,2.4-0.4c0.7-0.3,1.2-0.6,1.6-1.1c0.3-0.5,0.5-1,0.5-1.6c0-0.6-0.2-1.1-0.5-1.5c-0.3-0.4-0.9-0.8-1.6-1.1
		c-0.5-0.2-1.6-0.5-3.2-0.9c-1.7-0.4-2.8-0.8-3.5-1.1c-0.9-0.5-1.5-1-1.9-1.7c-0.4-0.7-0.6-1.4-0.6-2.3c0-0.9,0.3-1.8,0.8-2.6
		c0.5-0.8,1.3-1.4,2.3-1.8c1-0.4,2.1-0.6,3.3-0.6c1.3,0,2.5,0.2,3.6,0.6c1,0.4,1.8,1.1,2.4,1.9c0.6,0.8,0.8,1.8,0.9,2.9l-2.3,0.2
		c-0.1-1.1-0.5-2-1.3-2.6c-0.7-0.6-1.8-0.9-3.2-0.9c-1.5,0-2.5,0.3-3.2,0.8c-0.7,0.5-1,1.2-1,1.9c0,0.7,0.2,1.2,0.7,1.6
		c0.5,0.4,1.7,0.9,3.6,1.3c1.9,0.4,3.3,0.8,4,1.2c1.1,0.5,1.8,1.1,2.3,1.8c0.5,0.7,0.8,1.6,0.8,2.6c0,1-0.3,1.9-0.8,2.7
		c-0.6,0.9-1.3,1.5-2.4,2c-1,0.5-2.2,0.7-3.5,0.7c-1.6,0-3-0.2-4.1-0.7c-1.1-0.5-2-1.2-2.6-2.2C189.5,297.8,189.1,296.7,189.1,295.5
		"/>
	<path class="st1" d="M206.1,295.5l2.3-0.2c0.1,0.9,0.4,1.7,0.7,2.2c0.4,0.6,1,1.1,1.8,1.4c0.8,0.4,1.7,0.5,2.8,0.5
		c0.9,0,1.7-0.1,2.4-0.4c0.7-0.3,1.2-0.6,1.6-1.1c0.3-0.5,0.5-1,0.5-1.6c0-0.6-0.2-1.1-0.5-1.5c-0.3-0.4-0.9-0.8-1.6-1.1
		c-0.5-0.2-1.6-0.5-3.2-0.9c-1.7-0.4-2.8-0.8-3.5-1.1c-0.9-0.5-1.5-1-1.9-1.7c-0.4-0.7-0.6-1.4-0.6-2.3c0-0.9,0.3-1.8,0.8-2.6
		c0.5-0.8,1.3-1.4,2.3-1.8c1-0.4,2.1-0.6,3.3-0.6c1.3,0,2.5,0.2,3.6,0.6c1,0.4,1.8,1.1,2.4,1.9c0.5,0.8,0.8,1.8,0.9,2.9l-2.3,0.2
		c-0.1-1.1-0.5-2-1.3-2.6c-0.7-0.6-1.8-0.9-3.2-0.9c-1.5,0-2.5,0.3-3.2,0.8c-0.7,0.5-1,1.2-1,1.9c0,0.7,0.2,1.2,0.7,1.6
		c0.5,0.4,1.7,0.9,3.6,1.3c1.9,0.4,3.3,0.8,4,1.2c1.1,0.5,1.8,1.1,2.3,1.8c0.5,0.7,0.8,1.6,0.8,2.6c0,1-0.3,1.9-0.8,2.7
		c-0.6,0.9-1.3,1.5-2.4,2c-1,0.5-2.2,0.7-3.5,0.7c-1.6,0-3-0.2-4.1-0.7c-1.1-0.5-2-1.2-2.6-2.2C206.5,297.8,206.1,296.7,206.1,295.5
		"/>
	<path class="st1" d="M225.6,292.5c0,2.2,0.6,3.9,1.8,5.2c1.2,1.3,2.6,1.9,4.4,1.9c1.8,0,3.3-0.6,4.5-1.9c1.2-1.3,1.7-3.1,1.7-5.4
		c0-1.5-0.2-2.8-0.7-3.9c-0.5-1.1-1.2-2-2.2-2.6c-1-0.6-2-0.9-3.2-0.9c-1.7,0-3.2,0.6-4.4,1.7C226.3,287.9,225.6,289.8,225.6,292.5
		 M223.2,292.5c0-3,0.8-5.4,2.4-7.1c1.6-1.7,3.7-2.6,6.2-2.6c1.7,0,3.2,0.4,4.5,1.2c1.3,0.8,2.4,1.9,3.1,3.3c0.7,1.4,1.1,3,1.1,4.9
		c0,1.8-0.4,3.5-1.1,4.9c-0.7,1.5-1.8,2.5-3.1,3.3c-1.4,0.7-2.8,1.1-4.4,1.1c-1.7,0-3.2-0.4-4.6-1.2c-1.3-0.8-2.4-1.9-3.1-3.4
		C223.5,295.6,223.2,294.1,223.2,292.5"/>
	<polygon class="st1" points="243.7,301.3 243.7,283.2 246.1,283.2 255.6,297.4 255.6,283.2 257.9,283.2 257.9,301.3 255.5,301.3 
		246,287.1 246,301.3 	"/>
</g>
</svg>
